<svg xmlns="http://www.w3.org/2000/svg" width="512" height="512" viewBox="0 0 512 512" fill="none">
  <title>QR Generator</title>
  <rect width="512" height="512" rx="104" fill="#6366f1" />
  <g transform="translate(76 76) scale(15)" fill="none" stroke="#ffffff" stroke-width="2" stroke-linecap="round" stroke-linejoin="round">
    <rect x="3" y="3" width="5" height="5" rx="1" />
    <rect x="16" y="3" width="5" height="5" rx="1" />
    <rect x="3" y="16" width="5" height="5" rx="1" />
    <path d="M21 16h-3a2 2 0 0 0-2 2v3" />
    <path d="M21 21v.01" />
    <path d="M12 7v3a2 2 0 0 1-2 2H7" />
    <path d="M3 12h.01" />
    <path d="M12 3h.01" />
    <path d="M12 16v.01" />
    <path d="M16 12h1" />
    <path d="M21 12v.01" />
    <path d="M12 21v-1" />
  </g>
</svg>
